<?xml version="1.0" encoding="utf-8"?>
<!-- Generator: Adobe Illustrator 23.0.1, SVG Export Plug-In . SVG Version: 6.00 Build 0)  -->
<svg version="1.1" id="Capa_1" xmlns="http://www.w3.org/2000/svg" xmlns:xlink="http://www.w3.org/1999/xlink" x="0px" y="0px"
	 viewBox="0 0 612 338.26" style="enable-background:new 0 0 612 338.26;" xml:space="preserve">
<style type="text/css">
	.st0{fill-rule:evenodd;clip-rule:evenodd;fill:#D9D900;}
	.st1{fill-rule:evenodd;clip-rule:evenodd;fill:#333326;}
	.st2{fill-rule:evenodd;clip-rule:evenodd;fill:#D8D800;}
</style>
<g>
	<g>
		<path class="st0" d="M353.79,75.18c-0.79,2.6-1.73,5.17-2.74,7.69c-0.92,2.32-2.04,4.54-3.69,6.43c-1.62,1.86-3.58,3.36-5.46,4.92
			c-1.99,1.66-3.02,4.23-4.81,6.11c-1.71,1.79-4.23,2.71-6.32,4.01c-2.02,1.26-3.84,2.94-6.09,3.71c-4.64,1.57-9.5,3.23-14.31,4.12
			c-4.93,0.91-10.76-0.47-15.71-1.04c-4.84-0.55-9.41-2.53-13.6-5.11c-4.92-3.02-9.94-6.54-13.38-11.29
			c-3.18-4.4-5.31-9.55-7.37-14.5c-1-2.42-1.58-4.97-1.92-7.57c-0.35-2.79-1.41-4.83-1.85-7.6c-1.3-8.18,0.73-15.29,3.99-22.97
			c0.99-2.32,1.95-4.68,3.18-6.88c1.21-2.18,2.72-4.12,4.59-5.74c1.87-1.61,3.96-2.95,5.83-4.55c1.9-1.62,3.46-3.6,5.35-5.23
			c1.85-1.6,3.99-2.59,6.34-3.24c2.46-0.68,4.99-1.04,7.44-1.81c2.53-0.81,4.97-1.88,7.56-2.51c5.29-1.33,10.77-0.47,15.96,0.92
			c5.19,1.4,10.38,3.09,14.99,5.93c2.32,1.42,4.49,3.06,6.64,4.71c10.51,8.07,14.37,22.21,16.31,34.9
			C355.58,64.2,355.44,69.74,353.79,75.18z M306.11,8.89c-29.49,0-53.39,24.18-53.39,54.01c0,29.83,23.9,54.01,53.39,54.01
			c29.48,0,53.38-24.18,53.38-54.01C359.49,33.07,335.59,8.89,306.11,8.89z M319.07,22.59c-4.57-1.15-12.96-1.55-13.72-1.55
			c-1.15,0-2.29,0-2.67,0.39c-1.14,0.38-1.53,1.54-1.53,2.31l5.34,31.64c3.05-2.32,5.34-9.26,7.62-13.5
			c0.39-1.16,7.24-13.12,7.24-16.21c0-1.15,0-1.15-0.38-1.54C320.59,23.36,319.83,22.59,319.07,22.59z M302.86,55.89
			c-2.29-11.19-1.9-21.22-6.86-32.03c-2.29,0-4.96,0-6.48,1.16c-1.53,0.77-11.06,5.79-11.06,9.26c0,1.16,17.54,17.37,24.03,22.76
			C303.24,56.28,302.86,55.89,302.86,55.89z M277.5,38.49c-1.14-0.77-2.67-0.77-3.81-0.77c-4.2,4.63-6.49,12.73-6.49,18.14
			c0,5.4,5.72,5.01,9.92,5.01c1.14,0,6.86-0.38,9.91-0.76h13.73v-1.16C293.14,52.39,285.13,45.06,277.5,38.49z M299.73,61.64
			c0.39,0.03,0.74,0.03,1.08-0.1c-0.23,0.06-0.49,0.1-0.81,0.1H299.73z M299.43,63.56c-1.53,0-3.81-0.38-4.96-0.38l-16.78,1.55
			h-6.11c-2.67,0-4.96,0.76-4.96,4.63c0,1.93,3.82,19.29,11.06,19.29c0.76,0,1.14,0,1.53-0.39c5.34-6.17,10.3-12.73,15.63-18.13
			c1.53-1.93,4.96-4.64,4.96-5.79C299.81,63.56,299.81,63.95,299.43,63.56z M304.2,98.77l-0.38-31.63
			c-1.15,0.38-1.53,0.38-1.91,0.77c-5.34,6.94-11.05,13.88-16.78,20.83c-1.15,1.55-3.05,4.24-3.05,5.02
			c0,5.79,15.25,9.65,17.92,9.65C302.29,103.41,304.2,101.48,304.2,98.77z M307.83,66.95h-1.14v15.82c0,0.77,0.38,11.58,1.53,16.97
			c0.38,1.15,4.19,2.7,5.72,2.7c3.05,0,12.2-3.47,12.2-8.48c0-1.16-0.76-3.47-1.91-4.64C318.89,82,314.69,73.51,307.83,66.95z
			 M331.08,28.56c-1.53-1.15-3.43-2.7-4.19-2.7c-1.15,0-2.29,1.55-2.68,2.32c-4.19,9.64-14.49,28.55-14.49,29.32
			c0,1.16,3.82-0.77,8.01-3.09c6.87-3.85,14.49-7.33,20.97-11.18c0.39-0.39,0.39-0.77,0.39-1.93
			C339.09,37.44,336.04,33.19,331.08,28.56z M346.72,62.13c0-4.24-1.53-12.35-6.1-15.05l-28.98,14.66L341,67.53
			C345.58,66.76,346.72,65.98,346.72,62.13z M324.22,67.53c-4.19-1.16-8.77-1.93-12.96-3.08c-0.38,0.38-0.38-0.39-0.38,0.77
			c0,0.77,12.58,16.58,19.06,24.3c0.38,0.77,1.53,1.15,2.29,1.15c3.05,0,11.82-11.95,11.82-14.27c0-5.78-8.39-5.78-10.68-6.56
			C330.32,69.08,326.89,68.3,324.22,67.53z"/>
	</g>
	<path class="st1" d="M324.72,120.44c-0.7-2.9,0.78-4.52,2.66-5.81c1.81-1.24,3.75-2.3,5.65-3.4c1.44-0.83,2.68-1.81,3.24-3.49
		c0.25-0.72,0.72-1.37,1.08-2.03l-1.8-2.23c1.4-0.67,1.72,1.5,3.09,0.81l-2.31-3.22c0.4-0.81,0.79-1.53,1.13-2.28
		c0.29-0.64,0.84-0.67,1.23-0.32c0.62,0.55,1.08,1.27,1.62,1.91c0.3,0.36,0.61,0.69,1.03,1.17l1.04-2.4l0.42,0.02
		c0,0.62,0.06,1.24-0.01,1.85c-0.37,3.47-2.22,6.27-4.08,9.06c-2.3,3.46-4.61,6.92-6.95,10.35c-1.9,2.8-4.21,5.13-7.61,5.95
		c-3.45,0.83-6.96,0.88-10.62,0.55l0.83-1.55l-0.23-0.25c-0.41,0.41-0.83,0.82-1.25,1.22c-1.14,1.08-2.19,2.28-3.45,3.19
		c-1.07,0.79-2.41,0.75-3.7,0.35c-0.28-0.09-0.58-0.08-0.87-0.11l-0.13,0.39l3.55,1.57l-3.23,11.53c1.94-0.32,3.6-0.59,5.25-0.87
		c4.9-0.82,9.79-1.25,14.63,0.3c2.35,0.75,3.68,2.84,3.09,5.28c-0.52,2.15-1.16,4.31-2.1,6.3c-2.49,5.27-5.17,10.45-7.77,15.66
		c-0.65,1.32-0.83,2.87,1.22,3.53c1.69,0.54,3.32,1.26,4.94,2c0.36,0.16,0.55,0.72,0.81,1.1c-0.31,0.2-0.62,0.55-0.94,0.57
		c-1.94,0.08-3.88,0.07-5.82,0.09c-1.9,0.02-3.8,0.05-5.7,0.06c-0.58,0-1.17,0.03-1.73-0.08c-1.45-0.3-1.7-0.94-1.12-2.32
		c1.13-2.69,2.29-5.37,3.26-8.11c0.42-1.19,0.59-2.54,0.57-3.81c-0.06-3.28,0.41-6.32,2.72-8.83c0.3-0.33,0.45-0.79,0.68-1.19
		l-0.17-0.33c-0.83,0.3-1.7,0.51-2.47,0.91c-2.93,1.49-6.01,2.26-9.3,2.14c-0.19,0-0.37,0.05-0.72,0.1c0.44,1.87,0.93,3.67,1.28,5.5
		c0.7,3.64,1.24,7.32,0.17,10.96c-0.64,2.16-1.92,3.87-4.43,4c-1.43,0.08-2.85,0.11-4.28,0.11c-10.88,0.01-21.76,0-32.64,0h-1.14
		c0.26-1.83,1.66-2.39,2.96-2.85c2.19-0.77,4.14-1.85,5.81-3.5c1.42-1.41,2.94-0.7,4.39,0c0.69,0.34,1.37,0.74,1.97,1.23
		c1.17,0.95,2.45,0.9,3.74,0.48c2.97-0.97,5.9-2.09,8.9-3c1.34-0.41,2.78-0.49,4.49-0.76c-0.51-1.13-0.96-2.26-1.52-3.32
		c-1.68-3.15-3.36-6.31-5.15-9.41c-1.28-2.23-1.74-4.58-1.56-7.1c0.17-2.27,1.07-4.2,2.59-5.88c0.3-0.33,0.51-0.85,0.55-1.3
		c0.38-4.56-0.67-8.85-2.37-13.05c-0.49-1.2-0.59-2.56-0.92-4.08c1.77,0.17,3.15,0.55,4.25,1.72c1.11,1.18,2.16,2.42,3.39,3.45
		c0.96,0.8,2.21,0.7,3.42,0.29c-0.32-0.08-0.64-0.17-0.97-0.23c-1.27-0.25-2.4-0.83-3.01-1.98c-1.65-3.1-4.47-4.12-7.61-4.31
		c-3.51-0.21-6.91-0.85-10.26-1.83c-2.73-0.8-4.76-2.55-6.1-5.02c-2.57-4.75-5.09-9.54-7.56-14.35c-1.32-2.58-1.88-5.95-1.61-8.82
		l1.34,2.45c0.75-0.84,1.3-1.66,2.04-2.25c0.61-0.48,1.22-0.57,1.62,0.56c0.7,1.97,0.81,1.91-0.66,3.39
		c-0.34,0.35-0.58,0.8-0.71,1.45l2.48-1.09l0.25,0.26l-1.83,2.17c1.33,2.62,3.45,4.66,5.85,6.45c1.79,1.34,3.75,2.53,4.68,4.71
		c0.39,0.92,0.62,1.9,0.96,2.96c3.33-3.06,6.78-1.38,10.36-0.39l-0.67,1.08c1.15-0.55,2.21-1.12,3.31-1.57
		c2-0.82,3.99-0.47,5.87,0.4c2.62,1.21,3.87,0.72,4.97-2.12c0.43-1.13,0.88-2.26,1.24-3.41c1.07-3.36,5.32-3.98,7.72-2.23
		c1.78,1.3,3.41,3.08,2.92,5.47c-0.36,1.71-1.54,3.25-2.4,4.84c-0.19,0.36-0.66,0.56-0.88,0.91c-0.22,0.35-0.52,0.92-0.38,1.17
		c0.19,0.37,0.73,0.73,1.15,0.77c1.4,0.13,2.82,0.12,4.23,0.15c0.22,0,0.46-0.08,0.67-0.16c3.04-1.21,5.84-0.68,8.46,1.18
		C323.96,120,324.22,120.14,324.72,120.44z"/>
</g>
<g>
	<path class="st2" d="M24,248.62h18.17c5.56,0,8.34,4.68,8.34,9.27c0,4.59-2.78,9.35-8.34,9.35H24V248.62z M16.26,218.04v57.38h25.9
		c10.96,0,16.59-8.85,16.59-17.62c0-5.51-2.37-11.69-8.91-14.53c5.72-4.09,6.45-10.49,4.17-16.03c-2.12-5.16-6.7-9.2-13.9-9.2H16.26
		z M24,225.73h16.12c8.99,0,8.83,14.57-0.16,14.57H24V225.73z"/>
	<path class="st2" d="M113.2,275.58h8.82l-23-59.31h-6.08l-23.07,59.31h8.94c1.81-4.85,4.68-11.84,6.9-16.92h20.61L113.2,275.58z
		 M96.06,229.88l7.06,21.02H88.83L96.06,229.88z"/>
	<path class="st2" d="M174.96,231.9c-1.47-10.72-10.63-15.37-19.45-15.37c-6.62,0-13.49,2.63-17.33,7.77
		c-2.45,3.29-3.43,7.2-3.11,10.94v-0.08c0.9,11.97,11.36,14.01,20.27,14.95c5.72,0.6,11.61,1.36,12.59,5.86
		c0.17,0.76,0.25,1.44,0.25,2.04c0,6.11-6.7,9.68-12.84,9.68c-5.31,0-11.77-2.89-12.34-8.41v0.34l-0.08-1.27l-8.34,0.17l0.08,1.61
		c1.06,10.62,11.77,16.05,20.6,16.05c10.3,0,21.25-6.62,21.25-18.09c0-1.19-0.16-2.63-0.41-3.9c-2.21-9.51-11.94-11.63-19.78-12.65
		c-6.13-0.58-12.59-1.29-13-7.01c-0.16-1.9,0.25-3.73,1.39-5.25c2.29-3.04,6.54-4.39,10.38-4.47c4.99-0.08,10.54,2.19,11.69,7.41
		L174.96,231.9z"/>
	<polygon class="st2" points="201.03,250.48 226.8,250.48 226.8,241.86 201.03,241.86 201.03,226.13 227.37,226.13 227.37,218.04 
		193.15,218.04 193.15,275.07 227.45,275.07 227.45,267.05 201.03,267.05 	"/>
	<polygon class="st1" points="251.74,250.17 274.48,250.17 274.48,241.83 251.74,241.83 251.74,226.13 277.43,226.13 277.43,218.04 
		243.93,218.04 243.93,274.59 251.74,274.59 	"/>
	<path class="st1" d="M330.36,275.58h8.82l-23-59.31h-6.08l-23.07,59.31h8.94c1.81-4.85,4.68-11.84,6.9-16.92h20.61L330.36,275.58z
		 M313.22,229.88l7.06,21.02h-14.29L313.22,229.88z"/>
	<path class="st1" d="M351.46,246.79c0,8.12,3.3,15.49,8.26,20.74c5.02,5.04,12.05,8.19,19.81,8.19c13.32,0,23.79-8.51,27.06-21.74
		h-8.09c-2.94,8.88-10.3,13.86-18.97,13.86c-5.47,0-10.46-2.3-14.06-6.15c-3.6-3.85-5.92-9.05-5.92-14.91
		c0-6.03,2.31-11.22,5.92-15.08c3.6-3.85,8.58-6.28,14.06-6.28c8.42,0,15.45,4.44,18.47,13.23h8.18
		c-3.27-13.23-13.57-21.57-26.65-21.57c-7.76,0-14.79,3.39-19.81,8.67C354.76,231.12,351.46,238.49,351.46,246.79z"/>
	<polygon class="st1" points="446.07,274.84 446.07,226.13 463.32,226.13 463.32,217.96 421.08,217.96 421.08,226.13 437.97,226.13 
		437.97,274.84 	"/>
	<path class="st1" d="M477.55,246.4c0,8.43,3.41,16,8.65,21.37c5.23,5.2,12.47,8.35,20.35,8.35c8.07,0,15.42-3.15,20.73-8.35
		c5.15-5.37,8.5-12.95,8.5-21.37c0-8.43-3.35-16-8.5-21.18c-5.31-5.12-12.65-8.45-20.73-8.45c-7.88,0-15.11,3.32-20.35,8.45
		C480.96,230.4,477.55,237.97,477.55,246.4z M527.43,246.4c0,6.13-2.37,11.49-6.05,15.4c-3.88,4-9.25,6.29-14.84,6.29
		c-5.54,0-10.69-2.29-14.39-6.29c-3.71-3.91-6.12-9.36-6.12-15.4c0-6.04,2.41-11.49,6.12-15.4c3.7-3.81,8.84-6.1,14.39-6.1
		c5.6,0,10.96,2.28,14.84,6.1C525.07,234.91,527.43,240.27,527.43,246.4z"/>
	<path class="st1" d="M563.36,249.66l21.43,24.94h10.71l-18.06-21.36c9.81-1.7,14.79-9.34,14.79-17.38
		c0-8.92-6.21-17.89-18.65-17.89h-20.84v56.64h7.73v-48.46h13.1c6.96,0,10.39,4.84,10.39,9.72c0,4.96-3.43,9.91-10.39,9.91h-10.22
		V249.66z"/>
</g>
<g>
	<path class="st1" d="M92.62,304.64l0.84-1.76c-1.34-0.73-2.88-1.11-4.66-1.11c-1.67,0-3.12,0.36-4.35,1.04
		c-1.23,0.69-2.17,1.67-2.83,2.94c-0.65,1.28-0.98,2.77-0.98,4.47c0,2.71,0.67,4.81,2.03,6.27c1.36,1.48,3.29,2.21,5.78,2.21
		c1.72,0,3.15-0.25,4.34-0.75v-1.87c-1.53,0.42-2.88,0.62-4.07,0.62c-1.94,0-3.43-0.56-4.48-1.68c-1.04-1.12-1.56-2.72-1.56-4.79
		c0-1.99,0.53-3.58,1.62-4.73c1.09-1.15,2.57-1.74,4.44-1.74C90.03,303.77,91.33,304.07,92.62,304.64z"/>
	<path class="st1" d="M103.59,305.42c0.95-1.09,2.34-1.65,4.18-1.65c1.81,0,3.18,0.56,4.12,1.65c0.93,1.09,1.4,2.69,1.4,4.81
		c0,2.15-0.47,3.77-1.4,4.86c-0.94,1.09-2.32,1.64-4.13,1.64c-1.82,0-3.21-0.55-4.16-1.65c-0.95-1.09-1.42-2.71-1.42-4.84
		C102.17,308.13,102.64,306.53,103.59,305.42z M113.32,304.04c-1.34-1.5-3.18-2.26-5.54-2.26c-2.45,0-4.34,0.75-5.64,2.21
		c-1.32,1.48-1.98,3.55-1.98,6.22c0,2.71,0.66,4.79,1.98,6.27c1.31,1.5,3.18,2.23,5.61,2.23c2.37,0,4.21-0.75,5.55-2.26
		c1.34-1.51,2.01-3.58,2.01-6.21C115.31,307.6,114.64,305.53,113.32,304.04z"/>
	<path class="st1" d="M136.05,301.78h-1.78v9.71c-0.02,0.5,0,1.31,0.06,2.43c0.05,1.13,0.08,1.8,0.09,2.01h-0.09l-8.67-14.15h-2.15
		v16.94h1.76v-9.62c0-1.39-0.06-2.91-0.17-4.59h0.09l8.69,14.21h2.17V301.78z"/>
	<path class="st1" d="M153.68,311.37c-0.67-0.7-1.89-1.37-3.67-2c-1.06-0.36-1.85-0.68-2.37-1c-0.51-0.31-0.87-0.64-1.09-1.01
		c-0.22-0.36-0.33-0.82-0.33-1.4c0-0.68,0.28-1.21,0.87-1.6c0.59-0.39,1.4-0.59,2.46-0.59c1.32,0,2.68,0.29,4.09,0.85l0.62-1.81
		c-1.41-0.68-2.95-1.04-4.63-1.04c-1.61,0-2.9,0.39-3.87,1.14c-0.98,0.75-1.46,1.76-1.46,3.02c0,1.21,0.32,2.21,1.01,2.96
		c0.67,0.75,1.79,1.4,3.38,1.95c1.12,0.39,1.96,0.73,2.53,1.04c0.56,0.31,0.95,0.65,1.19,1.01c0.23,0.37,0.36,0.84,0.36,1.4
		c0,0.78-0.34,1.37-1,1.79c-0.67,0.43-1.67,0.64-2.98,0.64c-0.81,0-1.64-0.08-2.45-0.24c-0.83-0.15-1.59-0.39-2.28-0.68v2.01
		c1.08,0.61,2.62,0.9,4.62,0.9c1.84,0,3.31-0.41,4.38-1.21c1.07-0.81,1.62-1.93,1.62-3.39
		C154.69,312.99,154.35,312.09,153.68,311.37z"/>
	<path class="st1" d="M173.36,301.78v10.68c0,1.37-0.39,2.43-1.15,3.16c-0.76,0.75-1.86,1.11-3.26,1.11c-1.48,0-2.6-0.36-3.37-1.09
		c-0.76-0.73-1.14-1.79-1.14-3.16v-10.69h-1.9v10.77c0,1.93,0.55,3.44,1.64,4.53s2.65,1.64,4.65,1.64c2,0,3.57-0.55,4.72-1.64
		c1.14-1.09,1.72-2.58,1.72-4.5v-10.8H173.36z"/>
	<polygon class="st1" points="193.42,318.72 193.42,316.73 186.15,316.73 186.15,301.78 184.23,301.78 184.23,318.72 	"/>
	<polygon class="st1" points="205.94,303.77 211.29,303.77 211.29,301.78 198.74,301.78 198.74,303.77 204.04,303.77 204.04,318.72 
		205.94,318.72 	"/>
	<path class="st1" d="M220.83,311.74l2.01-5.31c0.31-0.9,0.57-1.73,0.74-2.47c0.26,0.98,0.53,1.81,0.79,2.47l1.98,5.31H220.83z
		 M231.07,318.72l-6.64-16.94h-1.65l-6.67,16.94h1.93l2.11-4.98h6.83l2.12,4.98H231.07z"/>
	<path class="st1" d="M250.41,301.78h-1.78v9.71c-0.02,0.5,0,1.31,0.06,2.43c0.05,1.13,0.08,1.8,0.09,2.01h-0.09l-8.67-14.15h-2.15
		v16.94h1.76v-9.62c0-1.39-0.06-2.91-0.17-4.59h0.09l8.69,14.21h2.17V301.78z"/>
	<path class="st1" d="M270.63,304.64l0.84-1.76c-1.34-0.73-2.88-1.11-4.66-1.11c-1.67,0-3.12,0.36-4.35,1.04
		c-1.23,0.69-2.17,1.67-2.82,2.94c-0.66,1.28-0.98,2.77-0.98,4.47c0,2.71,0.67,4.81,2.02,6.27c1.36,1.48,3.29,2.21,5.79,2.21
		c1.72,0,3.15-0.25,4.34-0.75v-1.87c-1.53,0.42-2.89,0.62-4.07,0.62c-1.93,0-3.43-0.56-4.47-1.68c-1.04-1.12-1.56-2.72-1.56-4.79
		c0-1.99,0.53-3.58,1.62-4.73c1.09-1.15,2.57-1.74,4.44-1.74C268.04,303.77,269.34,304.07,270.63,304.64z"/>
	<polygon class="st1" points="278.87,301.78 276.77,301.78 282.27,312.24 282.27,318.72 284.2,318.72 284.2,312.15 289.74,301.78 
		287.67,301.78 283.26,310.25 	"/>
	<path class="st1" d="M312.37,310.75c1.4,0,2.45,0.23,3.13,0.7c0.69,0.47,1.04,1.2,1.04,2.18c0,1.07-0.34,1.85-1.01,2.35
		c-0.69,0.5-1.68,0.75-3.01,0.75h-3.45v-5.98H312.37z M309.09,303.77h2.84c1.43,0,2.49,0.2,3.17,0.57c0.65,0.38,1,1,1,1.84
		c0,0.93-0.31,1.6-0.91,1.99c-0.59,0.39-1.57,0.58-2.93,0.58h-3.17V303.77z M307.17,318.72h5.75c1.78,0,3.18-0.42,4.18-1.29
		c1-0.86,1.49-2.06,1.49-3.6c0-2.29-1.26-3.66-3.75-4.11v-0.11c1.04-0.19,1.84-0.61,2.38-1.25c0.55-0.64,0.83-1.46,0.83-2.46
		c0-1.43-0.5-2.47-1.47-3.13c-0.98-0.65-2.57-1-4.75-1h-4.66V318.72z"/>
	<polygon class="st1" points="326.57,301.78 324.46,301.78 329.97,312.24 329.97,318.72 331.9,318.72 331.9,312.15 337.44,301.78 
		335.36,301.78 330.95,310.25 	"/>
	<polygon class="st1" points="364.05,318.72 364.05,316.73 356.78,316.73 356.78,301.78 354.86,301.78 354.86,318.72 	"/>
	<polygon class="st1" points="380.74,316.73 373.38,316.73 373.38,310.75 380.3,310.75 380.3,308.75 373.38,308.75 373.38,303.77 
		380.74,303.77 380.74,301.78 371.46,301.78 371.46,318.72 380.74,318.72 	"/>
	<path class="st1" d="M397.91,318.72l5.68-14.99h0.09c-0.11,1.46-0.16,2.83-0.16,4.08v10.91h1.9v-16.94h-2.84l-5.34,13.96h-0.09
		l-5.29-13.96H389v16.94h1.76v-10.77c0-1.62-0.06-3.04-0.15-4.23h0.09l5.65,15.01H397.91z"/>
	<path class="st1" d="M417.11,305.42c0.95-1.09,2.34-1.65,4.18-1.65c1.81,0,3.18,0.56,4.12,1.65c0.94,1.09,1.4,2.69,1.4,4.81
		c0,2.15-0.47,3.77-1.4,4.86c-0.94,1.09-2.32,1.64-4.13,1.64c-1.82,0-3.21-0.55-4.16-1.65c-0.95-1.09-1.42-2.71-1.42-4.84
		C415.69,308.13,416.16,306.53,417.11,305.42z M426.84,304.04c-1.34-1.5-3.18-2.26-5.54-2.26c-2.45,0-4.33,0.75-5.64,2.21
		c-1.32,1.48-1.98,3.55-1.98,6.22c0,2.71,0.66,4.79,1.98,6.27c1.31,1.5,3.18,2.23,5.61,2.23c2.37,0,4.21-0.75,5.55-2.26
		c1.34-1.51,2.01-3.58,2.01-6.21C428.83,307.6,428.16,305.53,426.84,304.04z"/>
	<path class="st1" d="M449.57,301.78h-1.77v9.71c-0.02,0.5,0,1.31,0.06,2.43c0.05,1.13,0.08,1.8,0.09,2.01h-0.09l-8.67-14.15h-2.15
		v16.94h1.76v-9.62c0-1.39-0.06-2.91-0.17-4.59h0.09l8.69,14.21h2.17V301.78z"/>
	<path class="st1" d="M469.8,304.64l0.84-1.76c-1.34-0.73-2.89-1.11-4.66-1.11c-1.67,0-3.12,0.36-4.35,1.04
		c-1.23,0.69-2.17,1.67-2.82,2.94c-0.65,1.28-0.98,2.77-0.98,4.47c0,2.71,0.67,4.81,2.03,6.27c1.36,1.48,3.29,2.21,5.78,2.21
		c1.72,0,3.15-0.25,4.34-0.75v-1.87c-1.53,0.42-2.88,0.62-4.07,0.62c-1.93,0-3.43-0.56-4.47-1.68c-1.04-1.12-1.56-2.72-1.56-4.79
		c0-1.99,0.53-3.58,1.62-4.73c1.09-1.15,2.57-1.74,4.44-1.74C467.22,303.77,468.51,304.07,469.8,304.64z"/>
	<path class="st1" d="M480.77,305.42c0.95-1.09,2.34-1.65,4.18-1.65c1.81,0,3.18,0.56,4.11,1.65c0.94,1.09,1.41,2.69,1.41,4.81
		c0,2.15-0.47,3.77-1.41,4.86c-0.93,1.09-2.32,1.64-4.13,1.64c-1.83,0-3.21-0.55-4.16-1.65c-0.95-1.09-1.42-2.71-1.42-4.84
		C479.35,308.13,479.82,306.53,480.77,305.42z M490.5,304.04c-1.34-1.5-3.18-2.26-5.53-2.26c-2.45,0-4.34,0.75-5.64,2.21
		c-1.33,1.48-1.98,3.55-1.98,6.22c0,2.71,0.65,4.79,1.98,6.27c1.31,1.5,3.18,2.23,5.61,2.23c2.37,0,4.21-0.75,5.55-2.26
		c1.34-1.51,2.01-3.58,2.01-6.21C492.49,307.6,491.83,305.53,490.5,304.04z"/>
	<path class="st1" d="M510.27,315.07c-1.17,1.11-2.91,1.65-5.22,1.65h-2.37v-12.95h2.82c2.15,0,3.79,0.54,4.88,1.62
		s1.64,2.66,1.64,4.76C512.02,312.33,511.43,313.97,510.27,315.07z M511.88,303.98c-1.43-1.46-3.45-2.2-6.02-2.2h-5.1v16.94h4.6
		c2.79,0,4.92-0.73,6.42-2.21c1.5-1.48,2.24-3.61,2.24-6.41C514.03,307.48,513.32,305.44,511.88,303.98z"/>
	<polygon class="st1" points="531.61,316.73 524.25,316.73 524.25,310.75 531.17,310.75 531.17,308.75 524.25,308.75 524.25,303.77 
		531.61,303.77 531.61,301.78 522.33,301.78 522.33,318.72 531.61,318.72 	"/>
</g>
<ellipse class="st1" cx="306.1" cy="195.68" rx="291.37" ry="1.49"/>
<g>
	<path class="st1" d="M60.25,315.03c0-2.64-1.39-4.2-4.16-4.67v-0.24c2.77-0.47,4.16-2.02,4.16-4.67v-5.43
		c0-2.36,1.42-3.58,4.25-3.67v-2.55c-2.26,0-4.07,0.53-5.41,1.58c-1.34,1.06-2,2.54-2,4.43v5.64c0,1.17-0.36,2.06-1.09,2.61
		c-0.72,0.57-1.9,0.87-3.51,0.88v2.6c1.49,0,2.64,0.28,3.42,0.82c0.78,0.56,1.18,1.47,1.18,2.73v5.58c0,1.88,0.63,3.35,1.93,4.41
		c1.3,1.03,3.12,1.57,5.49,1.6v-2.58c-1.4-0.03-2.46-0.32-3.18-0.87c-0.72-0.57-1.07-1.48-1.07-2.73V315.03z"/>
</g>
<g>
	<path class="st1" d="M553.96,315.03c0-2.64,1.39-4.2,4.16-4.67v-0.24c-2.77-0.47-4.16-2.02-4.16-4.67v-5.43
		c0-2.36-1.42-3.58-4.25-3.67v-2.55c2.26,0,4.07,0.53,5.41,1.58c1.34,1.06,2,2.54,2,4.43v5.64c0,1.17,0.36,2.06,1.09,2.61
		c0.72,0.57,1.9,0.87,3.51,0.88v2.6c-1.49,0-2.64,0.28-3.42,0.82c-0.79,0.56-1.18,1.47-1.18,2.73v5.58c0,1.88-0.63,3.35-1.93,4.41
		c-1.3,1.03-3.12,1.57-5.49,1.6v-2.58c1.4-0.03,2.46-0.32,3.18-0.87c0.72-0.57,1.07-1.48,1.07-2.73V315.03z"/>
</g>
</svg>
