<svg xmlns="http://www.w3.org/2000/svg" xmlns:xlink="http://www.w3.org/1999/xlink" width="100" height="100" viewBox="0 0 100 100"><g><g transform="translate(50 50) scale(0.69 0.69) rotate(0) translate(-50 -50)" style="fill:#1A1A1A"><svg fill="#1A1A1A" xmlns="http://www.w3.org/2000/svg" xmlns:xlink="http://www.w3.org/1999/xlink" version="1.1" x="0px" y="0px" viewBox="0 0 100 100" style="enable-background:new 0 0 100 100;" xml:space="preserve"><g><g><path d="M51.4,18c0-7.6,6-13.7,13.7-13.7s13.7,6,13.7,13.7s-6,13.7-13.7,13.7S51.4,25.6,51.4,18z M55.3,18c0,5.5,4.3,9.8,9.8,9.8    c5.5,0,9.8-4.3,9.8-9.8S70.5,8.2,65,8.2C59.6,8.2,55.3,12.5,55.3,18z"></path></g><g><path d="M20.3,72.6V51.5l11.2,16.3l-3.1,2.3l-4.2-6.9v9.5c0,11.9,7.6,19.5,19.5,19.5s19.5-7.6,19.5-19.5V29.7H67v42.9    c0,14-9.3,23.4-23.4,23.4S20.3,86.7,20.3,72.6z"></path></g></g></svg></g></g></svg>